<svg xmlns="http://www.w3.org/2000/svg" xmlns:xlink="http://www.w3.org/1999/xlink" width="60" height="60" viewBox="0 0 60 60"><defs><clipPath id="clip-path"><rect id="Rectangle_488" data-name="Rectangle 488" width="60" height="60" transform="translate(655 2834)" fill="#fff" stroke="#707070" stroke-width="1"></rect></clipPath><clipPath id="clip-path-2"><rect id="Rectangle_489" data-name="Rectangle 489" width="60" height="33.932" fill="#2e484f"></rect></clipPath></defs><g id="Mask_Group_95" data-name="Mask Group 95" transform="translate(-655 -2834)"><path id="Path_1074" data-name="Path 1074" d="M668.362,2857.608l12.981,5.5,7.823-.283,12.811-4.988v-4.082l-10.714.283-.907-2.494-2.551-1.927-4.081-.624-2.721.624-2.607,3.514-.624.907-9.41.227Z" fill="#8fc232"></path><g id="Group_1402" data-name="Group 1402" transform="translate(655 2847.034)"><g id="Group_1401" data-name="Group 1401"><path id="Path_1072" data-name="Path 1072" d="M143.934,119.68a3.011,3.011,0,1,0,3.036,2.993,3.055,3.055,0,0,0-3.036-2.993m.052,3.979a.741.741,0,0,1-.113,0,.931.931,0,0,1-.882-.978v-.031a.945.945,0,0,1,.955-.936h.031a.948.948,0,0,1,.936.955.5.5,0,0,1,0,.054.929.929,0,0,1-.928.934" transform="translate(-113.958 -96.774)" fill="#2e484f"></path><path id="Path_1073" data-name="Path 1073" d="M60,.9H52.236a.647.647,0,0,1-.391-.345,1.227,1.227,0,0,0-.9-.549A1.248,1.248,0,0,0,50.059.6a.551.551,0,0,1-.318.3H41.955V1.919s0,.009,0,.014,0,.016,0,.025V2.982h.978a1.081,1.081,0,0,0,.186,0h6.773v1.94H45.967v.959a1.164,1.164,0,0,1-.229.038c-2.593.025-5.187.006-7.78.025a.726.726,0,0,1-.775-.5,8,8,0,0,0-14.45.109.757.757,0,0,1-.544.354c-2.691.023-5.38.019-8.071.008a.686.686,0,0,1-.084-.008V4.924h-1.91a2.233,2.233,0,0,0-.419-.009H10.085V2.982h7.96V1.96h0V.9H10.28a.617.617,0,0,1-.388-.39A1.065,1.065,0,0,0,9.082,0a1.874,1.874,0,0,0-.921.463c-.116.081-.149.28-.218.44H0V2.982H1.014a1.441,1.441,0,0,0,.4.016c1.677-.023,3.353-.008,5.032-.008H7.956V4.924H7.176c-.254,0-.5,0-.752,0H4.011V6.878c0,.016,0,.033,0,.049V7h0c0,.031,0,.063,0,.094v3.684a1.809,1.809,0,0,0,0,.247v1.945H14.033v-.545c.588.215,1.171.45,1.77.682l-2.494,7.95q-1.585,5.03-3.15,10.067a1.981,1.981,0,0,0-.151,1,2,2,0,0,0,2.2,1.782h1.4a2.066,2.066,0,0,0,2.348-1.656l5.828-16c.088-.245.184-.488.279-.741,1.011.385,1.956.743,2.9,1.108a.626.626,0,0,1,.325.218c.345.649.672,1.305,1.035,2.029H21.963V32.914H24.65a2.925,2.925,0,0,0,.411.015q4.944.046,9.887,0l.069,0a2.564,2.564,0,0,0,.345-.017h2.683V18.868H33.659c.354-.708.662-1.332.98-1.952a.52.52,0,0,1,.243-.224c1-.4,2.01-.783,3.041-1.181.846,2.327,1.665,4.592,2.492,6.854q1.812,4.987,3.629,9.97a2.007,2.007,0,0,0,2.172,1.573,13.723,13.723,0,0,0,2.444-.134,2.1,2.1,0,0,0,1.16-2.729c-1.277-3.813-2.429-7.669-3.631-11.507-.668-2.13-1.332-4.26-2.01-6.427.613-.239,1.192-.49,1.787-.686v.549H55.989V10.9h-.023c0-.007,0-.015,0-.022.008-1.229,0-2.456,0-3.684.007-.062.01-.124.011-.186h.012V4.924H54.071a2.026,2.026,0,0,0-.289,0H52.021V2.988h2.6c1.278,0,2.554.005,3.832-.006h.415c.026,0,.052,0,.079,0s.023,0,.035,0H60ZM11.957,10.9H6.073V7h5.883Zm2,20.979H12.045L17.7,13.826l2.471.938Zm21.235-1.039H24.041V20.994H35.967v9.841ZM28.694,18.868a.373.373,0,0,1-.14-.128c-.308-.574-.588-1.16-.9-1.78h0l0,0s0,0,0,0c.142-.015.212-.029.287-.036H32.35c-.325.649-.614,1.248-.926,1.837a.363.363,0,0,1-.128.107ZM47.933,31.836l0,.006a1.089,1.089,0,0,1-.149.042c-1.7.09-1.707.092-2.293-1.516L40,15.262c-.054-.144-.1-.291-.172-.492l2.457-.945ZM45.921,10a.6.6,0,0,1-.345.379q-5.791,2.242-11.595,4.456a1.979,1.979,0,0,1-.685.094q-3.3.017-6.611,0a2.484,2.484,0,0,1-.85-.149c-3.757-1.435-7.508-2.888-11.269-4.322-.373-.142-.565-.314-.53-.75.044-.559.011-1.123.011-1.761h8.873c.953,0,1.127-.126,1.451-1.02A5.982,5.982,0,0,1,35.6,6.873c.367.993.478,1.072,1.525,1.072h8.812c0,.737.019,1.4-.017,2.054m2.115-2.991H53.92v3.887H48.036Z" fill="#2e484f"></path></g></g></g></svg>