<svg xmlns="http://www.w3.org/2000/svg" xmlns:xlink="http://www.w3.org/1999/xlink" width="60" height="60" viewBox="0 0 60 60"><defs><clipPath id="clip-path"><rect id="Rectangle_486" data-name="Rectangle 486" width="60" height="60" transform="translate(717 768)" fill="#2e484f" stroke="#707070" stroke-width="1"></rect></clipPath></defs><g id="Mask_Group_94" data-name="Mask Group 94" transform="translate(-717 -768)"><g id="Group_1400" data-name="Group 1400" transform="translate(717.001 770.432)"><path id="Path_1071" data-name="Path 1071" d="M17.419,7.394,30.041,1.1,42.512,6.884l-.4,13.378L30.041,25.306,17.419,20.261Z" fill="#8fc232"></path><path id="Path_1066" data-name="Path 1066" d="M-475.2,921.716c0-.845-.323-1.165-1.165-1.17-.574,0-1.149,0-1.739,0v-.884q0-16.209,0-32.417a3.341,3.341,0,0,0-3.454-3.474q-4.716-.007-9.434,0h-.658c0-.616-.031-1.141.008-1.661a1.21,1.21,0,0,0-.837-1.3q-6.03-2.761-12.045-5.558a1.486,1.486,0,0,0-1.377.021c-1.524.727-10.611,4.909-12.131,5.6a1.077,1.077,0,0,0-.717,1.129c.026.577,0,1.155,0,1.774h-.727c-3.065,0-6.13.063-9.192-.023a3.583,3.583,0,0,0-3.652,3.627c.049,10.785.024,21.57.024,32.357v.741a.869.869,0,0,1-.176.063c-.524,0-1.047.007-1.572.01-.834.008-1.154.33-1.155,1.179,0,1.693,0,3.387,0,5.08a3.338,3.338,0,0,0,3.391,3.416q26.606,0,53.216,0a3.344,3.344,0,0,0,3.383-3.362C-475.191,925.143-475.2,923.43-475.2,921.716Zm-18.384-38.3v2.75q0,4.05,0,8.1c0,.292-.013.5-.354.659-3.312,1.506-6.61,3.041-9.912,4.564a3.967,3.967,0,0,1-.381.131V896.8c0-2.68-.007-5.359.013-8.04a.791.791,0,0,1,.3-.607c3.348-1.571,6.709-3.11,10.068-4.655A2.132,2.132,0,0,1-493.581,883.413Zm-19.418-2.7c0,.011,0,.023.008.034s2.668-1.309,2.921-1.412c1.524-.622,2.994-1.37,4.5-2.044a.912.912,0,0,1,.663-.047q4.852,2.215,9.686,4.466l.252.126c-1.246.575-2.367,1.1-3.49,1.614-2.115.978-4.227,1.96-6.352,2.918a.967.967,0,0,1-.714.021c-3.18-1.448-6.35-2.92-9.522-4.387-.071-.032-.137-.076-.336-.187Zm-3.805,2.908a1.835,1.835,0,0,1,.044-.234c.855.391,1.69.771,2.524,1.155,2.554,1.18,5.111,2.354,7.655,3.553a.773.773,0,0,1,.4.538c.023,3.587.016,7.174.015,10.761a1.629,1.629,0,0,1-.044.238c-1.312-.606-2.6-1.2-3.889-1.8-2.1-.969-4.2-1.931-6.287-2.92a.774.774,0,0,1-.406-.533C-516.812,890.8-516.806,887.21-516.8,883.623Zm-13.55,36.214q0-16.088,0-32.178c0-1.454.5-1.957,1.96-1.957h9.627v.742h0v2.21h.021v.624c0,1.955.015,3.91-.008,5.865a1.175,1.175,0,0,0,.763,1.223c4.075,1.869,8.138,3.765,12.22,5.616a1.543,1.543,0,0,0,1.139.008c4.1-1.858,8.181-3.758,12.27-5.641a1.151,1.151,0,0,0,.719-1.194c-.021-2.154.037-9.421.037-9.421.165-.011.339-.031.515-.031q4.627,0,9.253,0c1.246,0,1.8.557,1.8,1.814q0,16.209,0,32.42v.577h-50.319Zm28.717,2.661c-.15.64-.294,1.247-.444,1.884h-6.213c-.147-.586-.3-1.2-.473-1.884Zm24.469,4.485a1.389,1.389,0,0,1-1.369,1.292,5.8,5.8,0,0,1-.6.011h-52.111c-1.527,0-2.005-.485-2.005-2.032V922.5h22.451c.25.976.491,1.945.746,2.91.2.74.448.936,1.179.936,2.458,0,4.917-.006,7.374.008a1.043,1.043,0,0,0,1.168-.885c.233-.977.493-1.947.751-2.955h22.436C-477.151,924.015-477.112,925.5-477.169,926.984Z" transform="translate(535.194 -875.087)" fill="#2e484f"></path><path id="Path_1067" data-name="Path 1067" d="M-425.625,1052.694c0-1.02,0-1.987,0-2.953,0-.719.359-1.122.97-1.12s.957.409.962,1.129c0,.7,0,1.4,0,2.2,1.095-.415,2.13-.781,3.143-1.2a1.8,1.8,0,0,1,1.447-.009c3.948,1.531,7.9,3.04,11.854,4.566a2,2,0,0,1,.76.458c.48.532.219,1.267-.552,1.566q-4.377,1.7-8.762,3.382c-1.123.433-2.236.9-3.378,1.277a2.04,2.04,0,0,1-1.263,0c-3.946-1.486-7.877-3.013-11.812-4.529-.131-.051-.265-.094-.4-.145a.974.974,0,0,1-.718-.937.98.98,0,0,1,.738-.983q3.15-1.207,6.3-2.421C-426.106,1052.892-425.884,1052.8-425.625,1052.694Zm.02,2.11-4,1.544c.228.1.313.15.4.184,3.018,1.161,6.035,2.327,9.061,3.467a1.232,1.232,0,0,0,.794-.034c1.751-.654,3.491-1.336,5.234-2.009l4.093-1.579c-.265-.12-.4-.191-.542-.245-2.87-1.1-5.744-2.2-8.607-3.317a1.493,1.493,0,0,0-1.257-.008,21.124,21.124,0,0,1-2.476.943.957.957,0,0,0-.8,1.147c.061,1.048-.274,1.479-.976,1.464S-425.673,1055.872-425.6,1054.8Z" transform="translate(449.819 -1020.583)" fill="#2e484f"></path><path id="Path_1068" data-name="Path 1068" d="M-277.665,1022.061c0-.784-.008-1.569,0-2.354a.94.94,0,0,1,.989-1.036.937.937,0,0,1,.939,1.026q.014,2.354,0,4.707a.94.94,0,0,1-.99,1.037.94.94,0,0,1-.938-1.027C-277.673,1023.63-277.665,1022.846-277.665,1022.061Z" transform="translate(319.278 -995.471)" fill="#2e484f"></path><path id="Path_1069" data-name="Path 1069" d="M-431.448,1040.055c0,.765.006,1.529,0,2.293a.948.948,0,0,1-.964,1.064.942.942,0,0,1-.966-1.061q-.011-2.323,0-4.647a.941.941,0,0,1,.963-1.063.944.944,0,0,1,.967,1.06C-431.442,1038.486-431.448,1039.271-431.448,1040.055Z" transform="translate(449.835 -1010.539)" fill="#2e484f"></path><path id="Path_1070" data-name="Path 1070" d="M-305.7,1033.1c0,.482.015.965,0,1.447a.93.93,0,0,1-.963.941.921.921,0,0,1-.96-.941q-.027-1.477,0-2.955a.919.919,0,0,1,.96-.939.927.927,0,0,1,.962.94C-305.687,1032.094-305.7,1032.6-305.7,1033.1Z" transform="translate(344.409 -1005.518)" fill="#2e484f"></path></g></g></svg>