<svg xmlns="http://www.w3.org/2000/svg" xmlns:xlink="http://www.w3.org/1999/xlink" width="76" height="76" viewBox="0 0 76 76"><defs><clipPath id="clip-path"><rect id="Rectangle_482" data-name="Rectangle 482" width="76" height="76" transform="translate(655 2834)" fill="#fff" stroke="#707070" stroke-width="1"></rect></clipPath><clipPath id="clip-path-2"><rect id="Rectangle_325" data-name="Rectangle 325" width="76" height="50" transform="translate(0 0.417)" fill="#2e484f"></rect></clipPath></defs><g id="Mask_Group_91" data-name="Mask Group 91" transform="translate(-655 -2834)"><circle id="Ellipse_12" data-name="Ellipse 12" cx="11.5" cy="11.5" r="11.5" transform="translate(681 2855)" fill="#8fc232"></circle><g id="Mask_Group_61" data-name="Mask Group 61" transform="translate(655 2846.583)"><g id="Group_924" data-name="Group 924" transform="translate(0 0)"><path id="Path_677" data-name="Path 677" d="M-363.764,231.568l-1.007-1.611,4.355-2.76-.033-.169c-.974-.045-1.948-.092-2.922-.134a83.228,83.228,0,0,1-20.867-3.25,25.74,25.74,0,0,1-8.552-4.069,10.89,10.89,0,0,1-1.971-1.984,4.883,4.883,0,0,1,.119-6.418,15.409,15.409,0,0,1,6.475-4.409,43.37,43.37,0,0,1,4.725-1.656c.8-.226.983-.568.973-1.343-.043-3.41.075-6.825-.045-10.232a6.251,6.251,0,0,1,6.489-6.472c2.329.047,4.66-.01,6.989.021a1.105,1.105,0,0,0,1.133-.663c.807-1.466,1.684-2.893,2.511-4.348a1.894,1.894,0,0,1,1.805-1.03q5.413.019,10.826,0a1.93,1.93,0,0,1,1.868,1.063c.789,1.411,1.652,2.782,2.426,4.2a1.284,1.284,0,0,0,1.326.783c2.272-.047,4.546-.027,6.819-.016a6.161,6.161,0,0,1,6.541,6.5c.027,3.439.031,6.879-.014,10.318-.01.745.257,1,.927,1.2a27.125,27.125,0,0,1,9.435,4.354,10.39,10.39,0,0,1,1.8,1.8,4.972,4.972,0,0,1-.146,6.693,15.78,15.78,0,0,1-6.133,4.184,54.172,54.172,0,0,1-14.084,3.728c-3.059.433-6.145.67-9.22.988-.249.026-.5,0-.815,0V224.97c1.12-.091,2.243-.186,3.367-.274a77.69,77.69,0,0,0,14.4-2.408,30.133,30.133,0,0,0,8.473-3.438,11.912,11.912,0,0,0,2.516-2.133,3.107,3.107,0,0,0-.082-4.585,14.039,14.039,0,0,0-2.843-2.273,28.923,28.923,0,0,0-7.583-3.041c0,1.311.014,2.525,0,3.738a6.162,6.162,0,0,1-4.964,6.342,7.311,7.311,0,0,1-1.524.108q-17.9.008-35.8,0a6.074,6.074,0,0,1-6.3-4.872,7.47,7.47,0,0,1-.116-1.523c-.016-1.221-.005-2.441-.005-3.766-.4.1-.743.156-1.075.262a25.78,25.78,0,0,0-8.189,3.846,8.208,8.208,0,0,0-1.123,1.04,3.384,3.384,0,0,0,.057,5.02,15.921,15.921,0,0,0,6.043,3.707,50.858,50.858,0,0,0,12.735,3.221c4.274.53,8.586.745,12.882,1.095a1.316,1.316,0,0,0,.757-.151l-4.373-2.757,1-1.613c.9.555,1.758,1.086,2.616,1.623q2.237,1.4,4.468,2.811a1.465,1.465,0,0,1,.128,2.1C-358.928,228.552-361.311,230.031-363.764,231.568Zm5.673-16.442q8.993,0,17.985,0a4.185,4.185,0,0,0,4.368-4.33q.02-8.74,0-17.481a4.129,4.129,0,0,0-4.367-4.3q-3.921-.01-7.842,0a1.843,1.843,0,0,1-1.734-1c-.85-1.475-1.727-2.935-2.56-4.419a.99.99,0,0,0-.992-.595q-4.9.033-9.8,0a1.058,1.058,0,0,0-1.059.643c-.818,1.461-1.69,2.891-2.516,4.347a1.877,1.877,0,0,1-1.8,1.028c-2.529-.018-5.061.083-7.585-.031a4.419,4.419,0,0,0-4.631,4.626c.072,5.6.021,11.2.022,16.8,0,2.978,1.73,4.717,4.7,4.718Q-367,215.13-358.091,215.126Z" transform="translate(395.907 -181.037)" fill="#2e484f"></path><path id="Path_678" data-name="Path 678" d="M-259.241,228.447a12.222,12.222,0,0,1-12.139,12.16,12.245,12.245,0,0,1-12.178-12.134,12.249,12.249,0,0,1,12.195-12.2A12.223,12.223,0,0,1-259.241,228.447ZM-271.4,238.664a10.269,10.269,0,0,0,10.242-10.245,10.231,10.231,0,0,0-10.2-10.184A10.156,10.156,0,0,0-281.6,228.415,10.2,10.2,0,0,0-271.4,238.664Z" transform="translate(309.148 -208.245)" fill="#2e484f"></path><path id="Path_679" data-name="Path 679" d="M-236.853,246.037l-1.566-.9c1.261-2.844,1.114-5.473-1.124-7.654-2.176-2.121-4.75-2.282-7.528-1l-.882-1.511c2.259-1.868,6.724-1.5,9.326.73A8.087,8.087,0,0,1-236.853,246.037Z" transform="translate(281.652 -221.757)" fill="#2e484f"></path><path id="Path_680" data-name="Path 680" d="M-254.722,261.395l.87,1.5c-2.328,1.788-6.85,1.7-9.7-1.06-2.712-2.632-3.386-7.331-1.34-9.981l1.524.887c-1.315,2.825-1.119,5.437,1.1,7.629C-260.1,262.518-257.525,262.657-254.722,261.395Z" transform="translate(295.653 -235.726)" fill="#2e484f"></path></g></g></g></svg>