<svg xmlns="http://www.w3.org/2000/svg" xmlns:xlink="http://www.w3.org/1999/xlink" width="60" height="60" viewBox="0 0 60 60"><defs><clipPath id="clip-path"><rect id="Rectangle_481" data-name="Rectangle 481" width="60" height="60" transform="translate(369 774)" fill="#2e484f" stroke="#707070" stroke-width="1"></rect></clipPath></defs><g id="Group_1397" data-name="Group 1397" transform="translate(-295 -2834)"><path id="Path_1056" data-name="Path 1056" d="M6162.831,3370.16l18.448-9.7,20.5,9.7h0l-19.447,9.216-18.755-9.216Z" transform="translate(-5857 -520)" fill="#8fc232"></path><g id="Mask_Group_90" data-name="Mask Group 90" transform="translate(-74 2060)"><g id="Group_1396" data-name="Group 1396" transform="translate(368.711 773.994)"><path id="Path_1050" data-name="Path 1050" d="M-248.256,677.98a1.207,1.207,0,0,0-1.409-1.208,1.155,1.155,0,0,0-.872.538,1.455,1.455,0,0,0-.209.768c-.015.991,0,1.984,0,3.167-1.421-1.425-2.666-2.685-3.924-3.935a1.3,1.3,0,0,0-1.986-.146,1.293,1.293,0,0,0,.185,1.93c1.358,1.37,2.719,2.741,4.1,4.086a4.9,4.9,0,0,0,.929.574l-.244.3-2.52,1.419a5.664,5.664,0,0,0-.507-.684c-1.264-1.279-2.528-2.56-3.818-3.814a1.245,1.245,0,0,0-2.124.332,1.3,1.3,0,0,0,.415,1.542c1.016,1.005,2.028,2.016,3.058,3.043.265.267.532.532.8.8-.678.384-1.308.695-1.886,1.081a.739.739,0,0,1-1.122-.136q-.863-.876-1.732-1.747-1.483-1.5-2.975-2.985-1.871-1.875-3.732-3.757a1.764,1.764,0,0,1-.432-1c-.085-.87-.5-1.379-1.266-1.381s-1.2.5-1.266,1.373a1.492,1.492,0,0,1-.319.891q-1.7,1.728-3.415,3.442t-3.426,3.415c-.614.612-1.229,1.219-1.844,1.828a.849.849,0,0,1-.766.14c-.7-.329-1.358-.747-2.08-1.156.209-.221.384-.411.565-.595l.217-.217c1.033-1.034,2.078-2.057,3.1-3.108a1.264,1.264,0,0,0-.419-2.2,1.382,1.382,0,0,0-1.465.494c-1.429,1.441-2.869,2.873-4.327,4.329-.834-.477-1.632-.935-2.568-1.473.309-.255.523-.4.707-.586q2.028-2.016,4.041-4.037c.129-.129.267-.252.384-.39a1.264,1.264,0,0,0-.054-1.821,1.256,1.256,0,0,0-1.817.117c-1.231,1.218-2.443,2.451-3.805,3.824l-.221.223c0-1.172,0-2.1,0-3.035s-.461-1.456-1.25-1.458-1.247.524-1.249,1.454c0,1.984.015,3.966-.01,5.948a1.367,1.367,0,0,0,.782,1.321c.236.133.473.265.709.4q.62.351,1.241.7,4.494,2.526,8.986,5.051,2.284,1.283,4.575,2.562,2.122,1.183,4.248,2.364a1.843,1.843,0,0,0,1.517-.008q2.334-1.3,4.667-2.6,2.075-1.159,4.148-2.322,4.712-2.645,9.413-5.314c.256-.144.515-.29.772-.436s.494-.281.742-.421a1.578,1.578,0,0,0,.741-1.072C-248.21,682.259-248.233,680.118-248.256,677.98Zm-20.022,4.548,3.361,3.361.82.82q1.384,1.38,2.769,2.764c-.643.365-1.354.793-2.095,1.166a.662.662,0,0,1-.582-.146c-.031-.029-.061-.061-.092-.09q-1.965-1.924-3.889-3.895a1.078,1.078,0,0,1-.276-.62.465.465,0,0,1,0-.052C-268.295,684.741-268.278,683.646-268.278,682.528Zm-2.51.017c0,1.085.008,2.214-.009,3.344,0,.075,0,.148,0,.224,0,.127-.136.271-.24.377-1.15,1.156-2.3,2.307-3.491,3.493-.271.273-.546.546-.824.824q-1.267-.71-2.366-1.329l3.19-3.19.4-.4Q-272.468,684.224-270.788,682.544Zm-.042,10.813c-.772-.44-1.456-.828-2.168-1.233.173-.165.342-.325.509-.486.568-.543,1.11-1.06,1.659-1.586Zm4.586-1.118c-.542.307-1.231.693-1.992,1.122V690c.49.549.966,1.085,1.458,1.638C-266.6,691.837-266.425,692.037-266.244,692.239Z" transform="translate(299.581 -642.951)" fill="#2e484f"></path><path id="Path_1051" data-name="Path 1051" d="M-248.231,610.987a1.412,1.412,0,0,0-.885-1.408l-1.416-.708-6.628-3.3q-3.467-1.733-6.933-3.469-2.178-1.092-4.356-2.188a2.138,2.138,0,0,0-2.13,0q-1.971.992-3.945,1.979-3.68,1.844-7.362,3.682-3.1,1.549-6.2,3.109-.945.475-1.89.953a1.586,1.586,0,0,0-.8,1.1c0,.2-.006.39-.008.586-.052,3.194-.035,6.39-.019,9.582a1.2,1.2,0,0,0,1.5,1.181,1.246,1.246,0,0,0,1-1.381c-.013-2.554,0-5.107,0-7.757.092.029.162.048.221.065a1.16,1.16,0,0,1,.171.06q6.7,3.352,13.39,6.716,1.64.823,3.28,1.655a1.165,1.165,0,0,1,.453.757,1.274,1.274,0,0,0,1.25,1.158,1.157,1.157,0,0,0,1.243-1.129.871.871,0,0,1,.589-.874q1.809-.9,3.617-1.8,6.328-3.154,12.651-6.317c.2-.1.415-.175.7-.292,0,3.029,0,5.973,0,8.917a1.909,1.909,0,0,0,.211.949,1.11,1.11,0,0,0,1.074.551c.778-.019,1.214-.545,1.214-1.492,0-3.515-.01-7.031.01-10.544C-248.233,611.206-248.231,611.1-248.231,610.987Zm-6.67,1.127q-4.6,2.3-9.192,4.6-2.425,1.211-4.853,2.412a1.282,1.282,0,0,1-.982.079q-2.3-1.136-4.6-2.283-5.608-2.791-11.2-5.6c-.181-.092-.365-.182-.547-.273-.09-.044-.171-.1-.388-.238l9.125-4.557,1.36-.682,1.652-.826c1.486-.745,2.971-1.488,4.465-2.214a1.276,1.276,0,0,1,.981-.048q2.494,1.233,4.986,2.477c.409.2.816.407,1.225.611q5.035,2.51,10.068,5.035c.107.052.2.123.409.252-.317.159-.622.313-.92.463C-253.857,611.592-254.379,611.853-254.9,612.114Z" transform="translate(299.577 -594.549)" fill="#2e484f"></path><path id="Path_1052" data-name="Path 1052" d="M-302.841,586.032v2.445a1.84,1.84,0,0,1-.313.027c-2.579.01-5.159,0-7.738,0h-.935V596.6c0,.142,0,.284,0,.426h-2.5q-.025-4.9,0-9.795a1.152,1.152,0,0,1,1.246-1.212q5-.022,10.008,0A1.342,1.342,0,0,1-302.841,586.032Z" transform="translate(314.333 -586.003)" fill="#2e484f"></path><path id="Path_1053" data-name="Path 1053" d="M-171.631,597.022h-2.5c-.008-2.8,0-5.6,0-8.512h-7.976c-.192,0-.384.006-.576,0v-2.5c1.732-.014,3.461,0,5.192,0,1.486,0,2.971-.006,4.456,0,.943.006,1.4.446,1.4,1.377Q-171.619,592.207-171.631,597.022Z" transform="translate(231.727 -586.004)" fill="#2e484f"></path><path id="Path_1054" data-name="Path 1054" d="M-302.842,725.644V728.1a1.134,1.134,0,0,1-.19.015q-5.045.022-10.085,0a1.158,1.158,0,0,1-1.208-1.252q-.019-5,0-10.01a1.237,1.237,0,0,1,.008-.154h2.464a1.622,1.622,0,0,1,.019.25c.01,2.581,0,5.159,0,7.74v.93h8.089c.234,0,.469-.01.7,0A1.415,1.415,0,0,1-302.842,725.644Z" transform="translate(314.334 -668.008)" fill="#2e484f"></path><path id="Path_1055" data-name="Path 1055" d="M-171.64,726.956a1.164,1.164,0,0,1-1.3,1.16q-4.876.012-9.745,0v-2.493c2.533-.01,5.061,0,7.594,0h.958v-8.141c0-.234-.013-.469.006-.7,0-.027,0-.052.008-.077h2.474c0,.031,0,.063,0,.094Q-171.612,721.872-171.64,726.956Z" transform="translate(231.727 -668.008)" fill="#2e484f"></path><rect id="Rectangle_480" data-name="Rectangle 480" width="54.414" height="2.375" transform="translate(2.197 30.337)" fill="#2e484f"></rect></g></g></g></svg>