<svg xmlns="http://www.w3.org/2000/svg" xmlns:xlink="http://www.w3.org/1999/xlink" width="60" height="60" viewBox="0 0 60 60"><defs><clipPath id="clip-path"><rect id="Rectangle_484" data-name="Rectangle 484" width="60" height="60" transform="translate(655 2834)" fill="#fff" stroke="#707070" stroke-width="1"></rect></clipPath><clipPath id="clip-path-2"><rect id="Rectangle_485" data-name="Rectangle 485" width="60" height="43.011" fill="#2e484f"></rect></clipPath></defs><g id="Mask_Group_93" data-name="Mask Group 93" transform="translate(-655 -2834)"><path id="Path_1065" data-name="Path 1065" d="M656.632,2864l12.55-11.849,13.508,13.508,8.143-8.43,11.5,10.155-.479,6.514-45.217-.383Z" fill="#8fc232"></path><g id="Group_1398" data-name="Group 1398" transform="translate(655 2842.495)"><g id="Group_1399" data-name="Group 1399"><path id="Path_1061" data-name="Path 1061" d="M52.21,199.861l-1.476-1.476-.008.008-2.976-2.976-1.476,1.476.865.865.039.045c.288.3.587.6.973.989H9.92a.257.257,0,0,0-.074-.035l1.863-1.863-1.477-1.476-2.976,2.976-.008-.008-1.476,1.476.008.008-.008.008,1.476,1.477.008-.008,2.976,2.976,1.477-1.477L9.864,201l.021-.027h38.13l.052.08-1.793,1.793,1.476,1.477,2.1-2.1.331-.331.548-.548.008.008,1.476-1.477-.008-.008Z" transform="translate(-4.765 -161.309)" fill="#2e484f"></path><path id="Path_1062" data-name="Path 1062" d="M297.214,35.2l1.476-1.476-.008-.008,2.976-2.976-1.476-1.476-.865.865-.045.039c-.3.288-.6.587-.989.973V7.075A.257.257,0,0,0,298.319,7l1.863,1.863,1.476-1.476-2.976-2.976.008-.008-1.476-1.476-.008.008-.008-.008L295.722,4.4l.008.008-2.976,2.976,1.477,1.476,1.845-1.845.027.021V31.006l-.08.052-1.793-1.793-1.477,1.476,2.1,2.1.331.331.548.548-.008.008L297.2,35.2l.008-.008Z" transform="translate(-241.659 -2.417)" fill="#2e484f"></path><path id="Path_1063" data-name="Path 1063" d="M48.424,0H0V32.785H48.424ZM2.165,2.131H46.288V22.639c-1.075-1.082-2.053-2.071-3.036-3.055q-3.139-3.143-6.282-6.282c-.816-.815-1.279-.818-2.084-.014q-3.513,3.509-7.018,7.025a3.682,3.682,0,0,0-.4.6L27.2,20.9a4.1,4.1,0,0,0-.413-.589Q21,14.5,15.195,8.712c-.877-.877-1.29-.875-2.174.009Q7.893,13.847,2.768,18.978a5.744,5.744,0,0,0-.442.565l-.162-.088Zm-.073,28.5V27.8c0-1.567-.014-3.135.014-4.7a1.263,1.263,0,0,1,.3-.8Q8.116,16.555,13.856,10.84a1.885,1.885,0,0,1,.193-.158L34,30.634Zm44.243-.014c-.2.019-.364.049-.53.05-2.721,0-5.442.008-8.163-.008a1.083,1.083,0,0,1-.7-.225c-2.709-2.675-5.4-5.369-8.049-8.012l7.115-7.112c3.336,3.333,6.708,6.7,10.073,10.076a.808.808,0,0,1,.241.495c.018,1.564.011,3.129.011,4.735" fill="#2e484f"></path><path id="Path_1064" data-name="Path 1064" d="M139.6,37.347a3.971,3.971,0,1,0-3.971-3.987,3.961,3.961,0,0,0,3.971,3.987m.006-5.845a1.877,1.877,0,1,1-1.881,1.835,1.86,1.86,0,0,1,1.881-1.835" transform="translate(-111.956 -24.273)" fill="#2e484f"></path></g></g></g></svg>