<svg xmlns="http://www.w3.org/2000/svg" xmlns:xlink="http://www.w3.org/1999/xlink" width="60" height="60" viewBox="0 0 60 60"><defs><clipPath id="clip-path"><rect id="Rectangle_491" data-name="Rectangle 491" width="60" height="60" transform="translate(655 2834)" fill="#fff" stroke="#707070" stroke-width="1"></rect></clipPath><clipPath id="clip-path-2"><rect id="Rectangle_493" data-name="Rectangle 493" width="60" height="45.979" fill="#2e484f"></rect></clipPath></defs><g id="Mask_Group_96" data-name="Mask Group 96" transform="translate(-655 -2834)"><g id="Group_1403" data-name="Group 1403" transform="translate(655 2841.011)"><g id="Group_1403-2" data-name="Group 1403"><circle id="Ellipse_13" data-name="Ellipse 13" cx="1.5" cy="1.5" r="1.5" transform="translate(41 5.989)" fill="#8fc232"></circle><circle id="Ellipse_14" data-name="Ellipse 14" cx="1.5" cy="1.5" r="1.5" transform="translate(16 26.989)" fill="#8fc232"></circle><path id="Path_1075" data-name="Path 1075" d="M60,43.613a.553.553,0,0,0-.1.132,2.957,2.957,0,0,1-3.115,2.231q-26.776,0-53.552,0A3,3,0,0,1,0,42.714c0-1.172,0-2.344,0-3.515,0-.849.363-1.2,1.218-1.209.565,0,1.13,0,1.788,0v-.765Q3.01,21.287,3,5.35A5.094,5.094,0,0,1,5.187.871,4.624,4.624,0,0,1,7.817.008c.137,0,.273-.007.41-.007Q29.994,0,51.76,0A4.908,4.908,0,0,1,56.744,3.49a6.944,6.944,0,0,1,.239,1.962q.021,15.849.01,31.7v.839c.581,0,1.121.029,1.656-.008a1.3,1.3,0,0,1,1.352.71ZM5.038,37.957H54.963c.011-.2.027-.372.027-.543q0-16.108,0-32.216A2.964,2.964,0,0,0,51.764,2Q30,2,8.243,2a4.074,4.074,0,0,0-.929.078,2.961,2.961,0,0,0-2.3,3.112q-.005,16.108,0,32.216c0,.172.016.343.026.549M2,39.985c0,.854,0,1.649,0,2.445,0,1.3.242,1.55,1.52,1.55H56.483c.176,0,.352.006.527-.005a.944.944,0,0,0,.975-.9c.035-1.009.01-2.019.01-3.089H50.638c-4.785,0-9.57.005-14.354-.009-.413,0-.636.093-.746.52-.149.584-.372,1.149-.56,1.724a1.03,1.03,0,0,1-1.051.772q-3.925.011-7.851,0a1.028,1.028,0,0,1-1.051-.772c-.181-.556-.4-1.1-.541-1.668-.117-.466-.355-.58-.823-.579Q13.174,40,2.686,39.985H2m24.476,0c.11.983.141,1.012,1.034,1.012h4.969c.914,0,.914,0,1.057-.986-.115-.009-.227-.025-.34-.025q-3.358,0-6.72,0" transform="translate(0 0)" fill="#2e484f"></path><path id="Path_1076" data-name="Path 1076" d="M143.329,60.355c1.976,0,3.952.028,5.927-.007a5.742,5.742,0,0,0,5.74-5.4.706.706,0,0,0-.427-.784,3.39,3.39,0,0,1-1.735-3.926,3.454,3.454,0,0,1,6.663,0,3.4,3.4,0,0,1-1.728,3.93.8.8,0,0,0-.481.774,8.029,8.029,0,0,1-8.179,7.713c-3.839.011-7.679-.022-11.518.017a5.691,5.691,0,0,0-5.55,5.362.71.71,0,0,0,.422.789,3.39,3.39,0,0,1,1.737,3.925,3.448,3.448,0,0,1-6.663,0,3.389,3.389,0,0,1,1.745-3.921.794.794,0,0,0,.465-.782,8,8,0,0,1,8.059-7.68c1.841-.013,3.682,0,5.523,0ZM157.3,51.124A1.127,1.127,0,0,0,156.128,50a1.143,1.143,0,0,0,.043,2.286,1.121,1.121,0,0,0,1.127-1.163m-26.454,21.87a1.174,1.174,0,0,0,1.173-1.137,1.139,1.139,0,0,0-1.087-1.139A1.1,1.1,0,0,0,129.74,71.8a1.139,1.139,0,0,0,1.1,1.189" transform="translate(-113.517 -43.507)" fill="#2e484f"></path><rect id="Rectangle_492" data-name="Rectangle 492" width="45.906" height="1.922" transform="translate(7.037 34.033)" fill="#2e484f"></rect><path id="Path_1077" data-name="Path 1077" d="M153.955,62.563l-1.485-1.494,1.611-1.3-1.621-1.331,1.554-1.493,1.257,1.439,1.322-1.536,1.524,1.507-1.494,1.311,1.5,1.408-1.5,1.508-1.336-1.592-1.335,1.569" transform="translate(-133.315 -49.713)" fill="#8fc232"></path><path id="Path_1078" data-name="Path 1078" d="M251.974,184.162l1.489,1.445-1.509,1.349,1.635,1.346-1.635,1.415-1.236-1.452-1.361,1.651-1.408-1.561,1.376-1.283-1.567-1.381,1.512-1.494,1.294,1.608,1.408-1.642" transform="translate(-216.649 -161.037)" fill="#8fc232"></path></g></g></g></svg>