<svg xmlns="http://www.w3.org/2000/svg" xmlns:xlink="http://www.w3.org/1999/xlink" width="40" height="40" viewBox="0 0 40 40"><defs><clipPath id="clip-path"><rect id="Rectangle_334" data-name="Rectangle 334" width="40" height="40" transform="translate(717 768)" fill="#8fc232" stroke="#707070" stroke-width="1"></rect></clipPath></defs><g id="Virtual_tours_and_Digital_Twin" data-name="Virtual tours and Digital Twin" transform="translate(-717 -768)"><g id="Group_945" data-name="Group 945" transform="translate(-59.361 576.019)"><path id="Path_715" data-name="Path 715" d="M796.351,191.982q4.53,0,9.061,0a2.7,2.7,0,0,1,2.958,2.961c.009,3.255.017,6.509-.012,9.764a1.25,1.25,0,0,0,.641,1.2c1.754,1.168,3.484,2.373,5.214,3.578,1.546,1.077,1.535,2.6-.021,3.677-1.753,1.217-3.5,2.441-5.276,3.625a1.124,1.124,0,0,0-.554,1.083c.02,3.645.012,7.29.01,10.936,0,2.156-1.009,3.176-3.137,3.177q-8.9,0-17.81,0a2.739,2.739,0,0,1-3.076-3.081c0-3.671-.012-7.343.011-11.014a1.19,1.19,0,0,0-.6-1.136c-1.775-1.184-3.523-2.408-5.275-3.627-1.5-1.047-1.5-2.573.011-3.626,1.772-1.235,3.547-2.465,5.34-3.67a1.068,1.068,0,0,0,.526-1.019c-.02-3.151-.011-6.3-.01-9.452,0-2.431.93-3.372,3.332-3.373Zm10.658,7.471c0-1.562.012-3.124,0-4.686-.009-.926-.472-1.344-1.382-1.447a3.477,3.477,0,0,0-3.707,1.463,3.012,3.012,0,0,1-2.8,1.223c-1.822-.036-3.645-.039-5.467,0a3.12,3.12,0,0,1-2.871-1.253,3.326,3.326,0,0,0-3.406-1.45c-1.213.12-1.654.458-1.656,1.66-.005,3.046-.108,6.1.062,9.134a24.723,24.723,0,0,1-.006,2.69c-.153,3.012-.048,6.037-.068,9.057a1.076,1.076,0,0,0,.533,1.017q4.707,3.211,9.378,6.475a1.145,1.145,0,0,0,1.531-.025q4.637-3.243,9.316-6.427a1.136,1.136,0,0,0,.563-1.081c-.023-2.915,0-5.831-.029-8.747a6.34,6.34,0,0,0-.367-1.258c-.055-.233-.126-.621-.012-.71.509-.4.393-.916.395-1.418C807.014,202.265,807.011,200.859,807.01,199.453Zm-21.3,18.7c0,2.711-.014,5.26.007,7.808.007.9.541,1.338,1.55,1.338q9.093.006,18.186,0c1.092,0,1.546-.468,1.55-1.581.008-2,0-4.007,0-6.01,0-.478,0-.956,0-1.556-.351.227-.567.358-.775.5q-4.207,2.9-8.414,5.8a2.17,2.17,0,0,1-2.928-.01q-4.176-2.876-8.349-5.757C786.316,218.53,786.078,218.387,785.714,218.154Zm21.238,10.373c-1.013.045-2.015.126-3.017.129q-7.536.02-15.072,0c-1.028,0-2.056-.081-3.1-.125-.232,1.61.188,2.107,1.885,2.107q8.707,0,17.414,0C806.766,230.637,807.187,230.14,806.952,228.526Zm1.444-12.995c1.772-1.222,3.414-2.346,5.048-3.483.769-.535.767-.936-.011-1.478q-2.3-1.6-4.615-3.182a3,3,0,0,0-.422-.2Zm-24.091-8.422c-1.8,1.245-3.5,2.4-5.169,3.577-.6.426-.581.848.042,1.292.972.692,1.961,1.36,2.945,2.037.7.478,1.393.951,2.181,1.49Zm17-13.7h-9.923c.967,1.2,1.036,1.238,2.41,1.238,1.714,0,3.431-.056,5.142.021A2.378,2.378,0,0,0,801.309,193.406Z" fill="#8fc232"></path><path id="Path_717" data-name="Path 717" d="M860.564,259.472c0-.884-.052-1.773.026-2.65a1.485,1.485,0,0,1,.552-.991c1.578-1.05,3.185-2.061,4.823-3.015a1.4,1.4,0,0,1,1.186,0c1.638.953,3.245,1.965,4.823,3.015a1.421,1.421,0,0,1,.545,1c.054,1.818.051,3.64,0,5.459a1.335,1.335,0,0,1-.518.934c-1.6,1.06-3.232,2.084-4.89,3.056a1.318,1.318,0,0,1-1.123-.005c-1.657-.972-3.286-2-4.889-3.056a1.378,1.378,0,0,1-.513-.936C860.52,261.347,860.564,260.408,860.564,259.472Zm1.926-2.936c1.316.823,2.519,1.589,3.741,2.322a.727.727,0,0,0,.625.015c1.237-.742,2.454-1.518,3.763-2.338-1.315-.824-2.537-1.6-3.775-2.351a.638.638,0,0,0-.55-.014C865.054,254.92,863.83,255.7,862.491,256.536Zm3.408,8.134a12.6,12.6,0,0,1,.016-1.979,3.039,3.039,0,0,0-2.062-3.745,14.181,14.181,0,0,1-1.971-1.21c0,1.465-.008,2.735.009,4a.723.723,0,0,0,.209.53C863.309,263.059,864.537,263.816,865.9,264.67Zm1.313,0c1.348-.844,2.538-1.578,3.712-2.337a.7.7,0,0,0,.289-.487c.024-1.314.013-2.628.013-4.107-1.365.856-2.61,1.629-3.843,2.422a.545.545,0,0,0-.164.4C867.207,261.876,867.212,263.19,867.212,264.671Z" transform="translate(-70.194 -51.22)" fill="#8fc232"></path><path id="Path_718" data-name="Path 718" d="M916.564,242.379c-.65-.533-1.271-1.007-1.834-1.542-.084-.08.034-.529.185-.657a.767.767,0,0,1,.7-.092,8.266,8.266,0,0,1,1.454,1.013.783.783,0,0,1,.133.692C917.136,241.992,916.862,242.12,916.564,242.379Z" transform="translate(-115.888 -40.551)" fill="#8fc232"></path><path id="Path_719" data-name="Path 719" d="M867.543,242.1c-.745-.02-1.121-.677-.758-1.015a6.427,6.427,0,0,1,1.725-1.153c.464-.207.995.485.66.856A11.345,11.345,0,0,1,867.543,242.1Z" transform="translate(-75.339 -40.429)" fill="#8fc232"></path><path id="Path_720" data-name="Path 720" d="M843.248,259.457c-.292-.243-.565-.364-.639-.561a.763.763,0,0,1,.107-.685,8.172,8.172,0,0,1,1.449-1.016.757.757,0,0,1,.691.113c.149.133.26.576.174.658C844.484,258.485,843.879,258.942,843.248,259.457Z" transform="translate(-55.028 -54.99)" fill="#8fc232"></path><path id="Path_721" data-name="Path 721" d="M942.364,258.53a.659.659,0,0,1-.984.633,6.542,6.542,0,0,1-1.329-.93.893.893,0,0,1-.152-.8.752.752,0,0,1,.671-.31,14.541,14.541,0,0,1,1.656,1.116C942.315,258.3,942.334,258.464,942.364,258.53Z" transform="translate(-137.117 -54.952)" fill="#8fc232"></path><path id="Path_722" data-name="Path 722" d="M893.745,227.389c-.158.107-.526.48-.641.414-.551-.318-1.512.546-1.736-.584-.075-.379.716-1.067,1.179-1.074A1.471,1.471,0,0,1,893.745,227.389Z" transform="translate(-96.195 -28.827)" fill="#8fc232"></path></g></g></svg>