<svg xmlns="http://www.w3.org/2000/svg" xmlns:xlink="http://www.w3.org/1999/xlink" width="40" height="40" viewBox="0 0 40 40"><defs><clipPath id="clip-path"><rect id="Rectangle_333" data-name="Rectangle 333" width="40" height="40" transform="translate(717 768)" fill="#8fc232" stroke="#707070" stroke-width="1"></rect></clipPath></defs><g id="Scan_to_BIM" data-name="Scan to BIM" transform="translate(-717 -768)"><g id="Group_926" data-name="Group 926" transform="translate(1252.194 -105.465)"><path id="Path_687" data-name="Path 687" d="M-495.2,906.173c0-.563-.215-.777-.777-.78-.382,0-.766,0-1.159,0V904.8q0-10.806,0-21.611a2.227,2.227,0,0,0-2.3-2.316q-3.144,0-6.29,0h-.438c0-.41-.02-.76.005-1.107a.807.807,0,0,0-.558-.869q-4.02-1.84-8.03-3.705a.991.991,0,0,0-.918.014c-1.016.485-7.074,3.272-8.087,3.732a.718.718,0,0,0-.478.753c.017.385,0,.77,0,1.183h-.485c-2.043,0-4.087.042-6.128-.015a2.389,2.389,0,0,0-2.434,2.418c.032,7.19.016,14.38.016,21.571v.494a.582.582,0,0,1-.117.042c-.349,0-.7,0-1.048.006-.556.005-.769.22-.77.786,0,1.129,0,2.258,0,3.387a2.226,2.226,0,0,0,2.261,2.277q17.738,0,35.477,0A2.229,2.229,0,0,0-495.2,909.6C-495.192,908.458-495.2,907.316-495.2,906.173Zm-12.256-25.535v1.833q0,2.7,0,5.4c0,.195-.009.335-.236.439-2.208,1-4.407,2.027-6.608,3.043a2.666,2.666,0,0,1-.254.087v-1.88c0-1.787,0-3.573.009-5.36a.527.527,0,0,1,.2-.4c2.232-1.047,4.472-2.074,6.712-3.1A1.431,1.431,0,0,1-507.452,880.638Zm-12.945-1.8c0,.008,0,.015.005.023s1.778-.872,1.947-.941c1.016-.415,2-.913,3-1.363a.608.608,0,0,1,.442-.031q3.235,1.477,6.458,2.977l.168.084-2.327,1.076c-1.41.652-2.818,1.307-4.234,1.945a.645.645,0,0,1-.476.014c-2.12-.965-4.233-1.946-6.348-2.924-.047-.022-.092-.051-.224-.125Zm-2.537,1.939a1.233,1.233,0,0,1,.029-.156c.57.261,1.127.514,1.683.77,1.7.786,3.407,1.569,5.1,2.369a.516.516,0,0,1,.268.359c.015,2.391.011,4.783.01,7.174a1.081,1.081,0,0,1-.029.158l-2.593-1.2c-1.4-.646-2.8-1.287-4.191-1.946a.516.516,0,0,1-.27-.355C-522.94,885.56-522.935,883.169-522.934,880.778Zm-9.033,24.142q0-10.725,0-21.452c0-.969.335-1.3,1.307-1.3h6.418v.494h0v1.474h.014v.416c0,1.3.01,2.607-.005,3.91a.783.783,0,0,0,.508.815c2.717,1.246,5.426,2.51,8.147,3.744a1.028,1.028,0,0,0,.759.005c2.734-1.239,5.454-2.505,8.18-3.76a.768.768,0,0,0,.479-.8c-.014-1.436.025-6.281.025-6.281.11-.008.226-.02.344-.02q3.084,0,6.169,0c.83,0,1.2.372,1.2,1.21q0,10.806,0,21.613v.385h-33.546Zm19.144,1.774c-.1.427-.2.832-.3,1.256h-4.142c-.1-.391-.2-.8-.316-1.256Zm16.313,2.99a.926.926,0,0,1-.912.862,3.87,3.87,0,0,1-.4.008h-34.741c-1.018,0-1.337-.323-1.337-1.355v-2.5h14.967c.167.651.327,1.3.5,1.94.13.493.3.624.786.624,1.638,0,3.278,0,4.916.005a.7.7,0,0,0,.779-.59c.155-.652.329-1.3.5-1.97H-496.5C-496.5,907.706-496.473,908.7-496.51,909.685Z" transform="translate(0 0)" fill="#8fc232"></path><path id="Path_688" data-name="Path 688" d="M-428.2,1051.337c0-.68,0-1.324,0-1.969,0-.479.239-.748.646-.746s.638.272.641.752,0,.937,0,1.468c.73-.277,1.42-.521,2.1-.8a1.2,1.2,0,0,1,.965-.006c2.632,1.021,5.27,2.026,7.9,3.044a1.329,1.329,0,0,1,.507.305c.32.355.146.844-.368,1.044q-2.918,1.135-5.841,2.255c-.749.289-1.49.6-2.252.852a1.361,1.361,0,0,1-.842,0c-2.631-.99-5.251-2.009-7.874-3.019-.087-.034-.177-.063-.264-.1a.649.649,0,0,1-.478-.625.653.653,0,0,1,.492-.655q2.1-.8,4.2-1.614C-428.526,1051.469-428.378,1051.406-428.2,1051.337Zm.013,1.406-2.67,1.029c.152.07.209.1.268.123,2.012.774,4.023,1.551,6.041,2.311a.821.821,0,0,0,.529-.022c1.167-.436,2.327-.891,3.489-1.339l2.729-1.053c-.176-.08-.267-.127-.361-.163-1.913-.736-3.829-1.464-5.738-2.211a1,1,0,0,0-.838-.006,14.1,14.1,0,0,1-1.651.629.638.638,0,0,0-.534.765c.041.7-.183.986-.65.976S-428.237,1053.455-428.191,1052.743Z" transform="translate(-90.86 -154.842)" fill="#8fc232"></path><path id="Path_689" data-name="Path 689" d="M-277.666,1020.931c0-.523-.005-1.046,0-1.569a.627.627,0,0,1,.659-.691.625.625,0,0,1,.626.684q.009,1.569,0,3.138a.627.627,0,0,1-.66.691.627.627,0,0,1-.625-.685C-277.672,1021.977-277.666,1021.454-277.666,1020.931Z" transform="translate(-229.786 -128.118)" fill="#8fc232"></path><path id="Path_690" data-name="Path 690" d="M-432.094,1038.918c0,.51,0,1.019,0,1.529a.632.632,0,0,1-.643.709.628.628,0,0,1-.644-.707q-.007-1.549,0-3.1a.627.627,0,0,1,.642-.709.629.629,0,0,1,.645.707C-432.09,1037.871-432.094,1038.395-432.094,1038.918Z" transform="translate(-90.842 -144.153)" fill="#8fc232"></path><path id="Path_691" data-name="Path 691" d="M-306.349,1032.285c0,.322.01.644,0,.965a.62.62,0,0,1-.642.627.614.614,0,0,1-.64-.627q-.018-.985,0-1.97a.613.613,0,0,1,.64-.626.618.618,0,0,1,.641.626C-306.339,1031.614-306.349,1031.95-306.349,1032.285Z" transform="translate(-203.04 -138.809)" fill="#8fc232"></path></g></g></svg>