<svg xmlns="http://www.w3.org/2000/svg" xmlns:xlink="http://www.w3.org/1999/xlink" width="60" height="40" viewBox="0 0 60 40"><defs><clipPath id="clip-path"><rect id="Rectangle_325" data-name="Rectangle 325" width="60" height="40" transform="translate(255 777)" fill="#8fc232"></rect></clipPath></defs><g id="Pre-construction_survey" data-name="Pre-construction survey" transform="translate(-255 -777)"><g id="Group_944" data-name="Group 944" transform="translate(-6 584)"><path id="Path_704" data-name="Path 704" d="M290.688,193c.3.087.612.15.9.266a3.931,3.931,0,0,1,2.468,2.769c.075.283.187.351.452.339a2.718,2.718,0,0,1,2.911,1.82c.038.094.242.171.37.173.973.014,1.946.006,2.919.008a3.372,3.372,0,0,1,3.585,3.576q.008,3.485,0,6.97a.424.424,0,0,0,.25.468,9.027,9.027,0,0,1,3.826,12.849c-.02.034-.037.069-.08.151.454.449.913.913,1.389,1.36a.49.49,0,0,0,.328.06,1.413,1.413,0,0,1,1.134.449c1.488,1.485,3,2.946,4.451,4.467a6.885,6.885,0,0,1,.839,1.476v.946c-.022.031-.058.059-.064.092a2.7,2.7,0,0,1-4.638,1.226c-1.433-1.467-2.9-2.9-4.359-4.343a1.463,1.463,0,0,1-.5-1.227.449.449,0,0,0-.093-.315c-.431-.459-.876-.9-1.314-1.351a1.536,1.536,0,0,1-.178.085A1.355,1.355,0,0,0,304.277,227a8.86,8.86,0,0,1-.044,2.24,3.332,3.332,0,0,1-3.462,2.774q-10.483,0-20.965,0a3.4,3.4,0,0,1-3.762-2.81.955.955,0,0,0-.044-.1V201.275a1.453,1.453,0,0,0,.068-.182,3.256,3.256,0,0,1,2.964-2.676c1.136-.094,2.285-.041,3.427-.039a.435.435,0,0,0,.491-.309,2.578,2.578,0,0,1,2.427-1.7c.258-.012.517,0,.773,0a4.044,4.044,0,0,1,2.321-3,10.138,10.138,0,0,1,1.111-.372Zm-7.954,6.719h-3.072a2.068,2.068,0,0,0-2.317,2.305q0,13.162,0,26.323a2.071,2.071,0,0,0,2.34,2.319h19.742c.513,0,1.027.011,1.54,0a1.907,1.907,0,0,0,1.913-1.57,24.033,24.033,0,0,0,.023-2.748,1.321,1.321,0,0,0-.163.014,8.991,8.991,0,0,1-9.036-2.878.758.758,0,0,0-.5-.208c-1.856-.015-3.711-.008-5.567-.01-.541,0-.84-.239-.845-.664s.294-.677.828-.677q2.27,0,4.541,0c.136,0,.272-.011.456-.02a9.364,9.364,0,0,1-1.109-4.011h-.474c-1.145,0-2.29,0-3.435,0-.508,0-.8-.255-.806-.668s.283-.667.79-.674c.382-.005.763,0,1.145,0h2.81l.259-1.346h-2.03c-.75,0-1.5.014-2.25-.007-.606-.017-.958-.606-.6-1.027a1.055,1.055,0,0,1,.712-.3c1.408-.028,2.816-.022,4.224-.007a.6.6,0,0,0,.63-.376,8.9,8.9,0,0,1,7.286-4.973,9.484,9.484,0,0,1,3.13.253.448.448,0,0,0,.042-.122c0-2.377.016-4.755-.018-7.132a1.862,1.862,0,0,0-1.585-1.724,13.577,13.577,0,0,0-1.692-.062c-.681-.009-1.362,0-2.084,0,0,.237,0,.43,0,.624a1.337,1.337,0,0,1-1.385,1.4q-6.021.009-12.042,0a1.344,1.344,0,0,1-1.4-1.354C282.725,200.182,282.734,199.974,282.734,199.719Zm25.613,17.853a7.752,7.752,0,1,0-7.836,7.707A7.768,7.768,0,0,0,308.347,217.572Zm-24.285-17.2h12.153c0-.17,0-.313,0-.456,0-.328.016-.658-.009-.985a1.311,1.311,0,0,0-1.277-1.214c-.407-.015-.816,0-1.224-.007-.6-.006-.828-.219-.873-.822a2.691,2.691,0,0,0-5.376.03c-.038.574-.263.786-.851.792-.421,0-.843-.009-1.263.009a1.237,1.237,0,0,0-1.193.972A15.849,15.849,0,0,0,284.062,200.375Zm24.191,26.7c.062.066.138.153.219.235q1.717,1.711,3.436,3.42c.307.306.605.622.929.91a1.32,1.32,0,0,0,1.4.26,1.211,1.211,0,0,0,.829-1.056,1.467,1.467,0,0,0-.49-1.272q-2.115-2.093-4.22-4.2c-.072-.072-.15-.137-.211-.194Zm.329-2.344-1.129-1.165-.848.816,1.165,1.171Z" transform="translate(0 0)" fill="#8fc232"></path><path id="Path_707" data-name="Path 707" d="M308.046,310.636c0-.446-.01-.892,0-1.338a1.285,1.285,0,0,1,1.282-1.322q1.4-.035,2.8,0a1.3,1.3,0,0,1,1.3,1.314q.026,1.357,0,2.715a1.326,1.326,0,0,1-1.328,1.335q-1.36.03-2.72,0a1.315,1.315,0,0,1-1.328-1.327C308.035,311.554,308.047,311.1,308.046,310.636Zm4.013,1.354v-2.648h-2.632v2.648Z" transform="translate(-28.668 -102.855)" fill="#8fc232"></path><path id="Path_708" data-name="Path 708" d="M308.044,387.231c0-.446-.012-.892,0-1.338a1.311,1.311,0,0,1,1.341-1.311q1.34-.018,2.681,0a1.328,1.328,0,0,1,1.355,1.346q.022,1.338,0,2.676a1.317,1.317,0,0,1-1.351,1.344q-1.34.019-2.681,0a1.3,1.3,0,0,1-1.348-1.341c-.012-.459,0-.918,0-1.377Zm1.365,1.348h2.641v-2.635h-2.641Z" transform="translate(-28.666 -171.402)" fill="#8fc232"></path><path id="Path_709" data-name="Path 709" d="M308.044,463.794c0-.433-.008-.866,0-1.3a1.3,1.3,0,0,1,1.29-1.361c.932-.034,1.867-.034,2.8,0a1.309,1.309,0,0,1,1.292,1.366q.017,1.318,0,2.637a1.326,1.326,0,0,1-1.337,1.367q-1.359.04-2.72,0a1.315,1.315,0,0,1-1.324-1.373C308.037,464.686,308.044,464.24,308.044,463.794Zm1.363,1.337h2.655V462.5h-2.655Z" transform="translate(-28.668 -239.879)" fill="#8fc232"></path><path id="Path_710" data-name="Path 710" d="M385.221,315.662h-5.763a2.016,2.016,0,0,1-.394-.015.612.612,0,0,1-.531-.555.605.605,0,0,1,.385-.7,1.266,1.266,0,0,1,.461-.072q5.862-.006,11.724,0a1.925,1.925,0,0,1,.276.009.665.665,0,0,1,.6.707.638.638,0,0,1-.639.621c-.315.017-.631.006-.947.006Z" transform="translate(-91.73 -108.544)" fill="#8fc232"></path><path id="Path_711" data-name="Path 711" d="M381.848,341.183c-.841,0-1.682,0-2.524,0-.518,0-.8-.236-.813-.649-.01-.43.289-.692.817-.694q2.543-.006,5.087,0c.514,0,.837.285.822.7s-.314.642-.827.644C383.556,341.185,382.7,341.183,381.848,341.183Z" transform="translate(-91.717 -131.376)" fill="#8fc232"></path><path id="Path_712" data-name="Path 712" d="M381.827,494.524c-.841,0-1.683,0-2.524,0-.508,0-.8-.246-.8-.662s.29-.677.79-.678q2.563-.005,5.127,0c.491,0,.807.268.812.667s-.31.671-.8.674C383.563,494.527,382.695,494.524,381.827,494.524Z" transform="translate(-91.709 -268.574)" fill="#8fc232"></path><path id="Path_713" data-name="Path 713" d="M471.158,391.488c.78-1.173,1.528-2.3,2.275-3.422q1.013-1.526,2.025-3.053a2.724,2.724,0,0,1,.2-.29.673.673,0,0,1,.891-.122.657.657,0,0,1,.22.836,2.394,2.394,0,0,1-.183.3q-2.319,3.5-4.64,6.991c-.439.661-.834.687-1.38.1-.724-.78-1.451-1.558-2.174-2.34-.393-.426-.418-.8-.086-1.1s.7-.216,1.091.2C469.972,390.209,470.543,390.825,471.158,391.488Z" transform="translate(-171.854 -171.322)" fill="#8fc232"></path><path id="Path_714" data-name="Path 714" d="M404.083,219.527c0-.654.2-.964.643-.979s.7.326.7.978a2.68,2.68,0,0,1-.021.47.675.675,0,0,1-.7.568.666.666,0,0,1-.622-.645C404.074,219.79,404.083,219.658,404.083,219.527Z" transform="translate(-114.594 -22.858)" fill="#8fc232"></path></g></g></svg>