<svg xmlns="http://www.w3.org/2000/svg" xmlns:xlink="http://www.w3.org/1999/xlink" width="40" height="40" viewBox="0 0 40 40"><defs><clipPath id="clip-path"><rect id="Rectangle_280" data-name="Rectangle 280" width="40" height="40" transform="translate(531 2400)" fill="#fff" stroke="#707070" stroke-width="1"></rect></clipPath></defs><g id="Mask_Group_60" data-name="Mask Group 60" transform="translate(-531 -2400)"><path id="Path_726" data-name="Path 726" d="M11842.942,2455.2l5.394-.807,2.311-3.925,2.9,4.182,4.513.734a7.036,7.036,0,0,0-3.009,8.4l-4.7-1.871-4.109,1.871a17.6,17.6,0,0,0,.294-4.732C11846.281,2456.994,11842.942,2455.2,11842.942,2455.2Z" transform="translate(-11288 -49)" fill="#8fc232"></path><g id="Group_946" data-name="Group 946" transform="translate(531 2400)"><circle id="Ellipse_11" data-name="Ellipse 11" cx="1.5" cy="1.5" r="1.5" transform="translate(3 22)" fill="#8fc232"></circle><path id="Path_723" data-name="Path 723" d="M551.686,320.4c-.212-1.233-.367-1.364-1.587-1.364-2.058,0-4.115,0-6.173,0-1,0-1.309.312-1.309,1.3q-.005,8.867,0,17.734c0,1.016.293,1.311,1.285,1.322a10.1,10.1,0,0,0,1.637-.029c.229-.035.415-.352.62-.541-.2-.192-.377-.46-.618-.553a2.5,2.5,0,0,0-.851-.026h-.831V320.266H550.4v17.981a16.416,16.416,0,0,0-2.011.027,1,1,0,0,0-.726.561c-.088.461.323.568.729.564.625-.006,1.25,0,1.875,0,1.069-.007,1.336-.269,1.367-1.332.005-.179,0-.358,0-.643a4.887,4.887,0,0,1,.508.271,13.778,13.778,0,0,0,8.193,2.607c5.444.007,10.891-.111,16.329.052,2.4.072,4.572-1.98,3.142-4.785a3.083,3.083,0,0,0,2.264-2.128,3,3,0,0,0-.758-3.022,3.061,3.061,0,0,0-.874-5.445,8.685,8.685,0,0,0,.39-1.919,2.946,2.946,0,0,0-3.157-2.873c-3.933-.011-7.866-.007-11.8-.008h-.92a8.686,8.686,0,0,0-.018-1.542c-.126-.658.5-1.863-.567-1.855-1.159.008-.513,1.233-.574,1.9-.147,1.6-.077,3.227-.249,4.826a9.613,9.613,0,0,1-1.9,4.807,6.913,6.913,0,0,1-4.544,2.778c-.077.012-.183-.006-.227.038-.225.227-.434.47-.648.707.281.155.584.475.838.44a8.017,8.017,0,0,0,6.018-3.877,14.023,14.023,0,0,0,1.853-6.383c.015-.18.032-.36.053-.587h2.764a3.275,3.275,0,0,0,.06,3.487,3.089,3.089,0,0,0-.27,5.769c-.985,2.167-.738,3.256,1,4.6a8.313,8.313,0,0,0-.565,1.836,8.757,8.757,0,0,0,.291,1.948.878.878,0,0,1-.253.051c-2.943-.015-5.889.046-8.827-.079a11.376,11.376,0,0,1-7.019-2.878,1.559,1.559,0,0,1-.5-1.035c-.034-4.271-.015-8.542-.031-12.812,0-.513.135-.706.676-.779a7.833,7.833,0,0,0,7.026-7.862c.034-1.457-.017-2.916,0-4.374.008-.714.08-1.446.873-1.766a2.053,2.053,0,0,1,2.2.834,8.536,8.536,0,0,1,1.3,4.511,12.652,12.652,0,0,0,.068,1.478c.062.285.369.517.566.773.2-.248.58-.5.58-.744a13.6,13.6,0,0,0-.909-5.582,3.709,3.709,0,0,0-3.04-2.494,2.118,2.118,0,0,0-2.561,1.631,18.644,18.644,0,0,0-.325,3.24,30.237,30.237,0,0,1-.183,4.037A6.573,6.573,0,0,1,551.686,320.4Zm22.422,9.259c-1.742,0-3.484.005-5.225,0-1.294-.005-2.077-.7-2.062-1.816.014-1.075.79-1.752,2.043-1.754q5.264-.008,10.528,0a1.8,1.8,0,1,1,.02,3.569C577.643,329.664,575.875,329.659,574.108,329.659Zm.467,4.716c-1.482,0-2.963.006-4.445,0a1.788,1.788,0,1,1-.063-3.552q4.523-.026,9.046,0a1.784,1.784,0,1,1-.015,3.551C577.59,334.383,576.082,334.375,574.575,334.375Zm-.54-13c1.223,0,2.447-.006,3.67,0a1.777,1.777,0,1,1,.049,3.539q-3.709.025-7.418,0a1.775,1.775,0,1,1,.029-3.537C571.588,321.368,572.811,321.376,574.035,321.376Zm0,14.2c1.092,0,2.184-.018,3.275,0a1.759,1.759,0,1,1,.024,3.517q-3.235.048-6.472,0a1.759,1.759,0,1,1,.053-3.517C571.953,335.56,572.994,335.577,574.034,335.577Z" transform="translate(-542.614 -300.359)" fill="#2e484f"></path><path id="Path_724" data-name="Path 724" d="M556.735,283.371c-.225-1.322-.437-2.71-.71-4.086a1.036,1.036,0,0,1,.336-1.1c.989-.923,1.963-1.865,2.9-2.84a1.192,1.192,0,0,0,.357-.924,1.156,1.156,0,0,0-.809-.57c-1.3-.234-2.62-.41-3.936-.572a1.18,1.18,0,0,1-1.057-.75c-.514-1.136-1.06-2.26-1.656-3.354-.19-.349-.62-.854-.869-.817a1.674,1.674,0,0,0-.941.855c-.59,1.067-1.119,2.171-1.626,3.282a1.179,1.179,0,0,1-1.036.776c-1.239.144-2.479.3-3.705.528-.391.072-.94.3-1.05.595-.1.273.2.805.472,1.09.874.927,1.8,1.811,2.734,2.673a1.092,1.092,0,0,1,.355,1.167c-.258,1.273-.486,2.554-.659,3.841a1.284,1.284,0,0,0,.269,1.029,1.25,1.25,0,0,0,1.05-.05q1.793-.857,3.522-1.844a1.087,1.087,0,0,1,1.213.028q1.811.994,3.661,1.915C556.28,284.611,556.778,284.247,556.735,283.371Zm-12.066-8.481c1.1-.164,2.2-.37,3.311-.478a1.926,1.926,0,0,0,1.721-1.241c.464-1.027.992-2.024,1.562-3.174.6,1.206,1.133,2.239,1.623,3.292a1.8,1.8,0,0,0,1.559,1.109c1.148.134,2.288.329,3.452.5-.761.8-1.419,1.607-2.2,2.275a2.334,2.334,0,0,0-.8,2.566c.232.988.353,2,.545,3.136-1-.523-1.89-.9-2.684-1.428a2.5,2.5,0,0,0-3.032.019c-.8.515-1.68.9-2.643,1.4.215-1.308.379-2.487.613-3.652a1.775,1.775,0,0,0-.587-1.743C546.285,276.649,545.506,275.781,544.669,274.891Z" transform="translate(-519.68 -268.36)" fill="#2e484f"></path><path id="Path_725" data-name="Path 725" d="M758.784,404.847a1.988,1.988,0,0,0-2.042,2,2.031,2.031,0,0,0,2,2.062,2.084,2.084,0,0,0,2.062-2.018A2.029,2.029,0,0,0,758.784,404.847Zm0,2.894a.752.752,0,0,1-.847-.907.806.806,0,0,1,.844-.811.765.765,0,0,1,.782.856C759.537,407.35,759.437,407.741,758.784,407.741Z" transform="translate(-754.256 -383.522)" fill="#2e484f"></path></g></g></svg>