<svg xmlns="http://www.w3.org/2000/svg" xmlns:xlink="http://www.w3.org/1999/xlink" width="40" height="40" viewBox="0 0 40 40"><defs><clipPath id="clip-path"><rect id="Rectangle_235" data-name="Rectangle 235" width="40" height="40" transform="translate(260 2303)" fill="#fff" stroke="#707070" stroke-width="1"></rect></clipPath></defs><g id="Mask_Group_69" data-name="Mask Group 69" transform="translate(-260 -2303)"><g id="Group_886" data-name="Group 886" transform="translate(-1610.13 935.172)"><g id="Group_871" data-name="Group 871" transform="translate(1880.834 1372.77)"><path id="Path_639" data-name="Path 639" d="M1958.961,1418.677v-.809a7.387,7.387,0,0,0-14.774,0v.809c-.782,0-1.416.9-1.416,2.008s.634,2.007,1.416,2.007c.023,0,.045,0,.07,0a7.385,7.385,0,0,0,14.636,0c.023,0,.047,0,.069,0,.784,0,1.417-.9,1.417-2.007S1959.744,1418.677,1958.961,1418.677Z" transform="translate(-1942.278 -1409.989)" fill="#fff"></path><path id="Path_640" data-name="Path 640" d="M1948.2,1426.2a7.9,7.9,0,0,1-7.742-6.428,2.384,2.384,0,0,1-1.553-2.458,2.447,2.447,0,0,1,1.416-2.419v-.4a7.879,7.879,0,0,1,15.758,0v.4a2.446,2.446,0,0,1,1.418,2.419,2.384,2.384,0,0,1-1.553,2.457A7.9,7.9,0,0,1,1948.2,1426.2Zm-7.317-7.375a.492.492,0,0,1,.487.426,6.894,6.894,0,0,0,13.662,0,.489.489,0,0,1,.529-.424l.038,0c.482,0,.915-.709.915-1.516s-.433-1.516-.926-1.516a.492.492,0,0,1-.492-.492v-.809a6.9,6.9,0,0,0-13.791,0v.809a.492.492,0,0,1-.492.492c-.493,0-.925.708-.925,1.516s.432,1.516.925,1.516h0l.027,0Z" transform="translate(-1938.91 -1406.621)" fill="#2e484f"></path></g><g id="Group_872" data-name="Group 872" transform="translate(1890.129 1391.859)"><path id="Path_641" data-name="Path 641" d="M2011.875,1556.473" transform="translate(-2011.875 -1556.473)" fill="#fff" stroke="#00287a" stroke-linecap="round" stroke-linejoin="round" stroke-width="7.718"></path></g><g id="Group_873" data-name="Group 873" transform="translate(1872.356 1390.617)"><path id="Path_642" data-name="Path 642" d="M1909.561,1559.879c-1.045-3.958-4.171-4.389-4.171-4.389l-8.583-2.048v-2.86a7.379,7.379,0,0,1-6.619,0v2.86l-8.583,2.048s-3.127.431-4.174,4.389l-1.216,6.931h34.564Z" transform="translate(-1875.723 -1550.09)" fill="#fff"></path><path id="Path_643" data-name="Path 643" d="M1907.412,1563.935h-34.564a.492.492,0,0,1-.484-.577l1.216-6.931c0-.014.005-.027.009-.041,1.078-4.073,4.2-4.689,4.555-4.746l8.186-1.953v-2.472a.492.492,0,0,1,.713-.439,6.888,6.888,0,0,0,6.177,0,.492.492,0,0,1,.713.439v2.472l8.186,1.953c.35.057,3.477.673,4.552,4.746,0,.013.006.027.009.041l1.219,6.931a.492.492,0,0,1-.484.577Zm-33.979-.983h33.393l-1.114-6.334c-.947-3.552-3.645-3.991-3.76-4.008l-.045-.009-8.583-2.048a.492.492,0,0,1-.378-.478v-2.1a7.9,7.9,0,0,1-5.636,0v2.1a.492.492,0,0,1-.378.478l-8.583,2.048-.047.009c-.112.017-2.811.455-3.76,4.008Z" transform="translate(-1872.356 -1546.723)" fill="#2e484f"></path></g><g id="Group_876" data-name="Group 876" transform="translate(1882.947 1393.353)"><g id="Group_874" data-name="Group 874" transform="translate(0 0)"><path id="Path_644" data-name="Path 644" d="M1962.6,1572.059l-3.238.773,3.743,4.557,2.736-3.34Z" transform="translate(-1958.868 -1571.567)" fill="#fff"></path><path id="Path_645" data-name="Path 645" d="M1959.734,1574.512a.492.492,0,0,1-.38-.179l-3.743-4.557a.492.492,0,0,1,.266-.79l3.238-.773a.488.488,0,0,1,.372.059l3.24,1.99a.491.491,0,0,1,.123.73l-2.736,3.34a.492.492,0,0,1-.38.18Zm-2.864-4.753,2.863,3.486,2-2.441-2.587-1.588Z" transform="translate(-1955.5 -1568.198)" fill="#2e484f"></path></g><g id="Group_875" data-name="Group 875" transform="translate(6.478 0.03)"><path id="Path_646" data-name="Path 646" d="M2013.9,1572.293l3.22.769-3.722,4.531-3.181-3.34Z" transform="translate(-2009.723 -1571.801)" fill="#fff"></path><path id="Path_647" data-name="Path 647" d="M2010.029,1574.718a.492.492,0,0,1-.356-.153l-3.181-3.34a.491.491,0,0,1,.125-.773l3.683-1.96a.489.489,0,0,1,.345-.044l3.22.769a.492.492,0,0,1,.266.79l-3.722,4.531a.491.491,0,0,1-.362.179Zm-2.379-3.7,2.352,2.469,2.87-3.495-2.275-.543Z" transform="translate(-2006.356 -1568.434)" fill="#2e484f"></path></g></g><g id="Group_877" data-name="Group 877" transform="translate(1887.73 1395.092)"><path id="Path_648" data-name="Path 648" d="M1999.858,1587.68l-1.675,2.044,1.675,1.765,1.814-1.9Z" transform="translate(-1997.529 -1586.938)" fill="#8fc232"></path><path id="Path_649" data-name="Path 649" d="M1995.371,1587.12l-2.328-2.455,2.3-2.809,2.521,2.646Zm-1.019-2.5,1.02,1.075,1.135-1.191-1.108-1.163Z" transform="translate(-1993.042 -1581.856)" fill="#2e484f"></path></g><g id="Group_878" data-name="Group 878" transform="translate(1886.672 1397.849)"><path id="Path_650" data-name="Path 650" d="M1993.263,1610.98l-.866.84-.741-.782-2.023,8.442h5.667Z" transform="translate(-1989.01 -1610.027)" fill="#8fc232"></path><path id="Path_651" data-name="Path 651" d="M1991.654,1613.441h-6.914l2.379-9.93,1.022,1.079,1.129-1.095Zm-5.667-.983h4.421l-1.691-7.055-.6.586-.459-.485Z" transform="translate(-1984.74 -1603.495)" fill="#2e484f"></path></g><g id="Group_885" data-name="Group 885" transform="translate(1880.345 1367.828)"><g id="Group_879" data-name="Group 879" transform="translate(8.279 0)"><path id="Path_652" data-name="Path 652" d="M2006.192,1375.8l-.34-4.111h-1.267l-.338,4.111Z" transform="translate(-2003.712 -1371.196)" fill="#8fc232"></path><path id="Path_653" data-name="Path 653" d="M2003.07,1372.922h-3.013l.419-5.094h2.173Zm-1.946-.983H2002l-.258-3.128h-.362Z" transform="translate(-2000.057 -1367.828)" fill="#2e484f"></path></g><g id="Group_880" data-name="Group 880" transform="translate(0.847 0.497)"><path id="Path_654" data-name="Path 654" d="M1962.471,1386.283a9.425,9.425,0,0,0-3.372-7.306,8.1,8.1,0,0,0-1.807-1.111l-.186-1.2a7.581,7.581,0,0,0-2.4-.673l.293,3.552h-1.946l.293-3.563a6.187,6.187,0,0,0-2.4.684l-.214,1.2a8.947,8.947,0,0,0-4.611,5.193,9.785,9.785,0,0,0-.54,3.224h16.893" transform="translate(-1945.087 -1375.442)" fill="#fff"></path><path id="Path_655" data-name="Path 655" d="M1959.595,1383.062h-17.876v-.492a10.254,10.254,0,0,1,.567-3.386,9.438,9.438,0,0,1,4.636-5.366l.209-1.171.194-.115a6.659,6.659,0,0,1,2.608-.751l.582-.052-.3,3.614h.878l-.3-3.612.591.063a8.1,8.1,0,0,1,2.556.716l.239.111.186,1.2a8.567,8.567,0,0,1,1.672,1.065,9.96,9.96,0,0,1,3.553,7.688Zm-16.88-.983H1958.6a8.935,8.935,0,0,0-3.178-6.434,7.6,7.6,0,0,0-1.7-1.044l-.244-.109-.186-1.2a7.194,7.194,0,0,0-1.416-.435l.286,3.465h-3.013l.287-3.486a5.849,5.849,0,0,0-1.42.441l-.217,1.211-.234.107a8.42,8.42,0,0,0-4.352,4.908A9.2,9.2,0,0,0,1942.715,1382.078Z" transform="translate(-1941.719 -1371.729)" fill="#2e484f"></path></g><g id="Group_881" data-name="Group 881" transform="translate(12.38 1.648)"><rect id="Rectangle_311" data-name="Rectangle 311" width="0.983" height="4.221" transform="translate(0 0.151) rotate(-8.815)" fill="#2e484f"></rect></g><g id="Group_882" data-name="Group 882" transform="translate(5.475 1.637)"><rect id="Rectangle_312" data-name="Rectangle 312" width="4.237" height="0.983" transform="translate(0 4.171) rotate(-79.87)" fill="#2e484f"></rect></g><g id="Group_883" data-name="Group 883" transform="translate(2.824 6.769)"><path id="Path_656" data-name="Path 656" d="M1963.014,1424.349h-5.747l-.027-.463a6.469,6.469,0,0,1,.854-2.92l.854.486a6.493,6.493,0,0,0-.7,1.914h4.765Z" transform="translate(-1957.235 -1420.965)" fill="#2e484f"></path></g><g id="Group_884" data-name="Group 884" transform="translate(0 10.846)"><path id="Path_657" data-name="Path 657" d="M1956.763,1456.832h-17.071s-.769.03-.763,1.212h18.585C1957.523,1456.862,1956.763,1456.832,1956.763,1456.832Z" transform="translate(-1938.438 -1456.34)" fill="#fff"></path><path id="Path_658" data-name="Path 658" d="M1954.635,1455.168h-19.562l0-.489c-.007-1.312.805-1.69,1.236-1.706h17.109c.427.016,1.233.394,1.224,1.707Zm-18.505-.983h17.452a.336.336,0,0,0-.214-.229h-17.014A.338.338,0,0,0,1936.129,1454.185Z" transform="translate(-1935.07 -1452.973)" fill="#2e484f"></path></g></g></g></g></svg>