<svg xmlns="http://www.w3.org/2000/svg" xmlns:xlink="http://www.w3.org/1999/xlink" width="40" height="40" viewBox="0 0 40 40"><defs><clipPath id="clip-path"><rect id="Rectangle_456" data-name="Rectangle 456" width="40" height="40" transform="translate(255 4383)" fill="#fff" stroke="#707070" stroke-width="1"></rect></clipPath></defs><g id="Mask_Group_87" data-name="Mask Group 87" transform="translate(-255 -4383)"><g id="Group_1374" data-name="Group 1374" transform="translate(257.567 4385.966)"><path id="Path_995" data-name="Path 995" d="M-190.933,118.76c.157-.236.277-.413.394-.592a9.044,9.044,0,0,1,10.18-3.765,9.046,9.046,0,0,1,6.475,8.712,19.8,19.8,0,0,1-2.566,9.266,42.336,42.336,0,0,1-8.9,11.2c-1.594,1.475-3.309,2.819-4.967,4.224a.773.773,0,0,1-1.118.081c-5.443-4.193-10.285-8.938-13.69-14.984a19.93,19.93,0,0,1-2.853-9.79,9.042,9.042,0,0,1,6.474-8.712,9.044,9.044,0,0,1,10.18,3.765C-191.211,118.347-191.091,118.524-190.933,118.76Zm-.06,28.153a1.969,1.969,0,0,0,.245-.127,53.669,53.669,0,0,0,11.35-11.628,23.212,23.212,0,0,0,4.4-10.781,8.165,8.165,0,0,0-5.767-8.99,8.027,8.027,0,0,0-9.575,4.667c-.109.245-.4.41-.6.612a3.018,3.018,0,0,1-.62-.69,8.036,8.036,0,0,0-8.977-4.729,8.007,8.007,0,0,0-6.374,7.952,18.191,18.191,0,0,0,2.32,8.449C-201.315,137.836-196.419,142.591-190.993,146.913Z" transform="translate(207.982 -114.025)" fill="#2e484f"></path><path id="Path_996" data-name="Path 996" d="M-124.019,189.987a8.01,8.01,0,0,1-8.01,7.994,8.01,8.01,0,0,1-7.977-8.028,8.008,8.008,0,0,1,7.977-7.959A8.007,8.007,0,0,1-124.019,189.987Zm-14.918-.034a6.939,6.939,0,0,0,6.858,6.959,6.939,6.939,0,0,0,6.992-6.892,6.938,6.938,0,0,0-6.858-6.958A6.938,6.938,0,0,0-138.938,189.954Z" transform="translate(149.061 -172.94)" fill="#2e484f"></path><path id="Path_997" data-name="Path 997" d="M-131.985,196.9a6.938,6.938,0,0,1,6.992-6.891,6.938,6.938,0,0,1,6.858,6.958,6.939,6.939,0,0,1-6.992,6.892A6.939,6.939,0,0,1-131.985,196.9Zm8.525,1.634c.52,0,.94-.012,1.359,0,.523.019.789-.195.776-.74q-.021-.864,0-1.728c.013-.546-.255-.757-.777-.738-.435.016-.872,0-1.358,0,0-.515-.009-.954,0-1.392.013-.492-.194-.748-.705-.741q-.9.013-1.794,0c-.512-.007-.717.25-.7.742.012.454,0,.909,0,1.391-.519,0-.939.012-1.358,0-.522-.019-.79.192-.776.739q.021.863,0,1.728c-.013.546.254.758.776.739.436-.016.872,0,1.359,0,0,.514.009.953,0,1.391-.013.491.193.749.7.742q.9-.013,1.794,0c.511.007.718-.251.7-.742C-123.47,199.491-123.461,199.052-123.461,198.538Z" transform="translate(142.109 -179.89)" fill="#8fc232"></path><path id="Path_998" data-name="Path 998" d="M-102.7,219.31c0,.514-.009.953,0,1.391.013.491-.194.749-.7.742q-.9-.013-1.794,0c-.512.007-.717-.251-.7-.742.012-.438,0-.877,0-1.391-.486,0-.923-.012-1.358,0-.522.019-.789-.194-.776-.739q.021-.864,0-1.728c-.014-.546.254-.758.776-.739.419.016.839,0,1.358,0,0-.482.009-.937,0-1.391-.013-.491.192-.749.7-.742q.9.013,1.794,0c.512-.007.718.249.705.741-.011.438,0,.877,0,1.392.486,0,.922.013,1.358,0,.522-.019.79.192.777.738q-.021.863,0,1.728c.013.545-.253.759-.776.74C-101.761,219.3-102.181,219.31-102.7,219.31Zm-4.234-2.132v1.063c.441,0,.857.019,1.271,0,.591-.033.869.208.836.815-.023.432,0,.866,0,1.286h1.064c0-.493,0-.954,0-1.414s.228-.689.694-.683.92,0,1.4,0v-1.064c-.457,0-.875-.015-1.291,0-.559.026-.827-.206-.8-.781.019-.436,0-.873,0-1.307h-1.064c0,.487-.007.928,0,1.369.011.5-.231.729-.729.717C-106,217.17-106.439,217.179-106.934,217.179Z" transform="translate(121.349 -200.663)" fill="#2e484f"></path></g></g></svg>